#N canvas 4 49 450 543 10;
#X obj 183 105 soundfiler;
#N canvas 8 49 450 300 tables 0;
#X obj 100 100 table a0;
#X obj 100 120 table a1;
#X obj 100 140 table a2;
#X obj 100 160 table a3;
#X obj 100 180 table a4;
#X obj 100 200 table a5;
#X obj 100 220 table a6;
#X obj 100 240 table a7;
#X obj 100 260 table a8;
#X restore 315 171 pd tables;
#X msg 153 203 9;
#X obj 153 247 until;
#X obj 153 269 i;
#X obj 153 291 + 1;
#X msg 209 254 -1;
#X obj 153 357 + 100;
#X obj 153 379 pack;
#X obj 153 423 s pd-tables;
#X msg 220 367 clear;
#X obj 152 225 t f b b;
#X msg 153 401 obj 100 \$1 table a\$2;
#X obj 153 313 t f f f;
#X obj 153 335 * 20;
#X msg 186 64 read -resize foo.wav a0 a1 a2 a3 a4 a5 a6 a7 a8;
#X floatatom 183 127 5 0 0 0 - - -;
#X connect 0 0 16 0;
#X connect 2 0 11 0;
#X connect 3 0 4 0;
#X connect 4 0 5 0;
#X connect 5 0 13 0;
#X connect 6 0 4 1;
#X connect 7 0 8 0;
#X connect 8 0 12 0;
#X connect 10 0 9 0;
#X connect 11 0 3 0;
#X connect 11 1 6 0;
#X connect 11 2 10 0;
#X connect 12 0 9 0;
#X connect 13 0 14 0;
#X connect 13 1 8 1;
#X connect 13 2 4 1;
#X connect 14 0 7 0;
#X connect 15 0 0 0;
