#N canvas 55 42 638 391 10;
#X msg -52 27 start;
#X msg -21 63 stop;
#X obj 208 -89 tgl 15 0 empty empty empty 17 7 0 10 -262144 -1 -1 0
1;
#X msg 208 -63 \; pd dsp \$1;
#X text 275 -92 in order to use ax_write;
#X text 206 -111 compute audio must~be set first;
#X text -75 -52 numbe of channels;
#X text -116 250 part of ambiX (c) iem 2010/2011;
#X text -115 -115 ax_read~ sample/help;
#X obj -21 119 ax_read~ 8 ........;
#X obj -22 178 dac~ 1 2 3 4 5 6 7 8;
#X text -74 -67 read CAF-files with an unlimited;
#X text 206 137 see also;
#X obj 231 162 ax_write~;
#X msg -93 -7 open ax-testfile.caf;
#X connect 0 0 9 0;
#X connect 1 0 9 0;
#X connect 2 0 3 0;
#X connect 9 0 10 0;
#X connect 9 1 10 1;
#X connect 9 2 10 2;
#X connect 9 3 10 3;
#X connect 9 4 10 4;
#X connect 9 5 10 5;
#X connect 9 6 10 6;
#X connect 9 7 10 7;
#X connect 14 0 9 0;
