#N canvas 415 228 818 570 10;
#X obj 304 -40 tgl 15 0 empty empty empty 17 7 0 10 -262144 -1 -1 1
1;
#X msg 304 -16 \; pd dsp \$1;
#X obj -3 213 ax_write~ 8 ........;
#X floatatom -3 249 5 0 0 0 - - -;
#X msg 18 91 start;
#X msg 26 119 stop;
#X obj 42 159 osc~ 440;
#X obj 98 159 osc~ 445;
#X obj 154 159 osc~ 660;
#X obj 211 159 osc~ 666;
#X msg -98 -48 open ax-testfile.caf;
#X msg 335 125 start;
#X msg 435 126 stop;
#X obj 319 175 ax_read~ 8 ........;
#X obj 411 311 dac~ 1 2 3 4 5 6 7 8;
#X msg 291 43 open ax-testfile.caf;
#X obj 304 -65 loadbang;
#X msg -52 9 matrix 3 4 1 2 3 4 5 6 7 8 9 3.1415 3.1337 6.66;
#X msg 7 34 matrix 2 2 1.111 2.222 3.333 4.444;
#X msg -77 -24 open ax-testfile2.caf;
#X msg 304 64 open ax-testfile2.caf;
#X floatatom 351 216 5 0 0 0 - - -;
#X obj 313 240 print EOF;
#X msg 385 125 pause;
#X obj 235 268 mtx_print OUT_MATRIX;
#X obj 18 68 mtx_print IN_MATRIX;
#X obj 514 227 mtx_eye;
#X obj 411 279 mtx_*~ 8 8 20 ---------;
#X obj 514 250 mtx_* 1;
#X obj 514 185 t b f;
#X msg 514 206 8;
#X obj 562 227 dbtorms;
#X obj 548 46 vsl 15 128 0 127 0 0 empty empty empty 0 -9 0 10 -262144
-1 -1 0 1;
#X obj 445 334 env~;
#X obj 448 359 vsl 15 128 0 100 0 0 empty empty empty 0 -9 0 10 -262144
-1 -1 0 1;
#X obj 460 334 env~;
#X obj 463 359 vsl 15 128 0 100 0 0 empty empty empty 0 -9 0 10 -262144
-1 -1 0 1;
#X obj 475 334 env~;
#X obj 478 359 vsl 15 128 0 100 0 0 empty empty empty 0 -9 0 10 -262144
-1 -1 0 1;
#X obj 490 334 env~;
#X obj 493 359 vsl 15 128 0 100 0 0 empty empty empty 0 -9 0 10 -262144
-1 -1 0 1;
#X obj 504 334 env~;
#X obj 507 359 vsl 15 128 0 100 0 0 empty empty empty 0 -9 0 10 -262144
-1 -1 0 1;
#X obj 518 334 env~;
#X obj 521 359 vsl 15 128 0 100 0 0 empty empty empty 0 -9 0 10 -262144
-1 -1 0 1;
#X obj 532 334 env~;
#X obj 535 359 vsl 15 128 0 100 0 0 empty empty empty 0 -9 0 10 -262144
-1 -1 0 1;
#X obj 547 334 env~;
#X obj 550 359 vsl 15 128 0 100 0 0 empty empty empty 0 -9 0 10 -262144
-1 -1 0 1;
#X obj 470 42 delay 200;
#X obj 452 -10 hradio 15 1 0 2 empty empty empty 0 -8 0 10 -262144
-1 -1 0;
#X obj 443 16 sel 0 1;
#X connect 0 0 1 0;
#X connect 2 0 3 0;
#X connect 4 0 2 0;
#X connect 5 0 2 0;
#X connect 6 0 2 0;
#X connect 6 0 2 4;
#X connect 7 0 2 1;
#X connect 7 0 2 5;
#X connect 8 0 2 2;
#X connect 8 0 2 6;
#X connect 9 0 2 3;
#X connect 9 0 2 7;
#X connect 10 0 2 0;
#X connect 11 0 13 0;
#X connect 12 0 13 0;
#X connect 13 0 24 0;
#X connect 13 1 22 0;
#X connect 13 2 21 0;
#X connect 13 3 27 1;
#X connect 13 4 27 2;
#X connect 13 5 27 3;
#X connect 13 6 27 4;
#X connect 13 7 27 5;
#X connect 13 8 27 6;
#X connect 13 9 27 7;
#X connect 13 10 27 8;
#X connect 15 0 13 0;
#X connect 16 0 0 0;
#X connect 17 0 2 0;
#X connect 17 0 25 0;
#X connect 18 0 2 0;
#X connect 18 0 25 0;
#X connect 19 0 2 0;
#X connect 20 0 13 0;
#X connect 23 0 13 0;
#X connect 26 0 28 0;
#X connect 27 0 14 0;
#X connect 27 0 33 0;
#X connect 27 1 14 1;
#X connect 27 1 35 0;
#X connect 27 2 14 2;
#X connect 27 2 37 0;
#X connect 27 3 14 3;
#X connect 27 3 39 0;
#X connect 27 4 14 4;
#X connect 27 4 41 0;
#X connect 27 5 14 5;
#X connect 27 5 43 0;
#X connect 27 6 14 6;
#X connect 27 6 45 0;
#X connect 27 7 14 7;
#X connect 27 7 47 0;
#X connect 28 0 27 0;
#X connect 29 0 30 0;
#X connect 29 1 31 0;
#X connect 30 0 26 0;
#X connect 31 0 28 1;
#X connect 32 0 29 0;
#X connect 33 0 34 0;
#X connect 35 0 36 0;
#X connect 37 0 38 0;
#X connect 39 0 40 0;
#X connect 41 0 42 0;
#X connect 43 0 44 0;
#X connect 45 0 46 0;
#X connect 47 0 48 0;
#X connect 49 0 11 0;
#X connect 50 0 51 0;
#X connect 51 0 49 0;
#X connect 51 0 15 0;
#X connect 51 1 49 0;
#X connect 51 1 20 0;
