#N canvas 171 231 707 524 10;
#X obj 103 91 ambix_info;
#X obj 103 141 print info;
#X msg 103 70 open \$1;
#X obj 103 28 bng 15 250 50 0 empty empty empty 17 7 0 10 -262144 -1
-1;
#X obj 103 111 t a a;
#X obj 103 49 openpanel;
#X obj 371 261 t a;
#X symbolatom 236 156 0 0 0 3 fileformat - -;
#X symbolatom 321 156 0 0 0 3 sampleformat - -;
#X floatatom 236 291 0 0 0 3 ambichannels - -;
#X floatatom 313 291 0 0 0 3 extrachannels - -;
#X obj 425 321 t a;
#X obj 236 336 route matrix;
#N canvas 4 49 450 300 matrix 0;
#X obj 71 43 inlet;
#X obj 71 63 list prepend matrix;
#X obj 71 83 list trim;
#X obj 71 133 t a;
#X text 100 132 ready for use with [iemmatrix];
#X connect 0 0 1 0;
#X connect 1 0 2 0;
#X connect 2 0 3 0;
#X restore 236 368 pd matrix;
#X obj 305 370 print ???;
#X obj 236 196 route frames samplerate;
#X obj 407 181 t a a;
#X obj 420 196 route frames samplerate;
#X obj 420 216 /;
#X floatatom 313 211 0 0 0 3 samplerate - -;
#X floatatom 236 211 0 0 0 3 frames - -;
#X floatatom 420 231 0 0 0 3 duration[sec] - -;
#X obj 236 126 route fileformat sampleformat;
#X obj 236 276 route ambichannels extrachannels;
#X obj 236 141 symbol;
#X obj 321 141 symbol;
#X text 266 12 [ambix_info];
#X text 266 30 get information about an AMBIsonics eXchange file;
#X obj 145 477 ambix_read~;
#X obj 235 477 ambix_readX~;
#X obj 330 477 ambix_info;
#X text 48 477 see also:;
#X connect 0 0 4 0;
#X connect 2 0 0 0;
#X connect 3 0 5 0;
#X connect 4 0 1 0;
#X connect 4 1 22 0;
#X connect 5 0 2 0;
#X connect 6 0 23 0;
#X connect 11 0 12 0;
#X connect 12 0 13 0;
#X connect 12 1 14 0;
#X connect 15 0 20 0;
#X connect 15 1 19 0;
#X connect 15 2 6 0;
#X connect 16 0 15 0;
#X connect 16 1 17 0;
#X connect 17 0 18 0;
#X connect 17 1 18 1;
#X connect 18 0 21 0;
#X connect 22 0 24 0;
#X connect 22 1 25 0;
#X connect 22 2 16 0;
#X connect 23 0 9 0;
#X connect 23 1 10 0;
#X connect 23 2 11 0;
#X connect 24 0 7 0;
#X connect 25 0 8 0;
