#N canvas 659 41 707 510 10;
#X obj -17 259 ax_write~ 8 ........;
#X floatatom -17 316 5 0 0 0 - - -;
#X msg -43 95 start;
#X msg -12 131 stop;
#X obj 296 -86 tgl 15 0 empty empty empty 17 7 0 10 -262144 -1 -1 0
1;
#X msg 296 -60 \; pd dsp \$1;
#X text 363 -89 in order to use ax_write;
#X text 294 -108 compute audio must~be set first;
#X text -115 -115 ax_write~ sample/help;
#X text -74 -67 write CAF-files with an unlimited;
#X obj 90 144 osc~ 440;
#X obj 188 145 osc~ 445;
#X obj 282 144 osc~ 660;
#X obj 378 144 osc~ 666;
#X text 43 317 recorded time in seconds;
#X text -75 -1 !!! existing files will be overwritten;
#X text -75 -52 number of channels;
#X text 320 287 see also;
#X obj 345 310 ax_read~;
#X msg -84 61 open ax-testfile.caf;
#X text -103 370 part of ambiX (c) iem 2010/2011;
#X connect 0 0 1 0;
#X connect 2 0 0 0;
#X connect 3 0 0 0;
#X connect 4 0 5 0;
#X connect 10 0 0 0;
#X connect 10 0 0 4;
#X connect 11 0 0 1;
#X connect 11 0 0 5;
#X connect 12 0 0 2;
#X connect 12 0 0 6;
#X connect 13 0 0 3;
#X connect 13 0 0 7;
#X connect 19 0 0 0;
