#N canvas 1413 175 973 600 10;
#X obj 437 188 dbtorms;
#X obj 437 53 vsl 15 128 0 127 0 0 empty empty empty 0 -9 0 10 -262144
-1 -1 0 1;
#X obj 29 282 env~;
#X obj 32 307 vsl 15 128 0 100 0 0 empty empty empty 0 -9 0 10 -262144
-1 -1 0 1;
#X obj 44 282 env~;
#X obj 47 307 vsl 15 128 0 100 0 0 empty empty empty 0 -9 0 10 -262144
-1 -1 0 1;
#X obj 59 282 env~;
#X obj 62 307 vsl 15 128 0 100 0 0 empty empty empty 0 -9 0 10 -262144
-1 -1 0 1;
#X obj 74 282 env~;
#X obj 77 307 vsl 15 128 0 100 0 0 empty empty empty 0 -9 0 10 -262144
-1 -1 0 1;
#X obj 88 282 env~;
#X obj 91 307 vsl 15 128 0 100 0 0 empty empty empty 0 -9 0 10 -262144
-1 -1 0 1;
#X obj 102 282 env~;
#X obj 105 307 vsl 15 128 0 100 0 0 empty empty empty 0 -9 0 10 -262144
-1 -1 0 1;
#X obj 116 282 env~;
#X obj 119 307 vsl 15 128 0 100 0 0 empty empty empty 0 -9 0 10 -262144
-1 -1 0 1;
#X obj 131 282 env~;
#X obj 134 307 vsl 15 128 0 100 0 0 empty empty empty 0 -9 0 10 -262144
-1 -1 0 1;
#X obj -112 135 loadbang;
#X obj -112 156 mtx D4.mtx;
#X obj 398 270 dac~ 1 2 3 4 5 6 7 8 9 10 11 12 13 14 15 16 17 18 19
20 21 22 23 24;
#X obj 4 149 ax_read~ 15 ........................................;
#X obj 41 177 mtx_*~ 25 15 0 ----------------------------------;
#X obj 60 108 ax_write~ 15 ..............................;
#X obj 60 83 mtx_*~ 15 25 0 ----------------------------;
#X obj 29 241 multiline~ 0 0 0 0 0 0 0 0 0 0 0 0 0 0 0 0 0 0 0 0 0
0 0 0 20;
#X obj 146 282 env~;
#X obj 149 307 vsl 15 128 0 100 0 0 empty empty empty 0 -9 0 10 -262144
-1 -1 0 1;
#X obj 161 282 env~;
#X obj 164 307 vsl 15 128 0 100 0 0 empty empty empty 0 -9 0 10 -262144
-1 -1 0 1;
#X obj 176 282 env~;
#X obj 179 307 vsl 15 128 0 100 0 0 empty empty empty 0 -9 0 10 -262144
-1 -1 0 1;
#X obj 191 282 env~;
#X obj 194 307 vsl 15 128 0 100 0 0 empty empty empty 0 -9 0 10 -262144
-1 -1 0 1;
#X obj 205 282 env~;
#X obj 208 307 vsl 15 128 0 100 0 0 empty empty empty 0 -9 0 10 -262144
-1 -1 0 1;
#X obj 219 282 env~;
#X obj 222 307 vsl 15 128 0 100 0 0 empty empty empty 0 -9 0 10 -262144
-1 -1 0 1;
#X obj 233 282 env~;
#X obj 236 307 vsl 15 128 0 100 0 0 empty empty empty 0 -9 0 10 -262144
-1 -1 0 1;
#X obj 248 282 env~;
#X obj 251 307 vsl 15 128 0 100 0 0 empty empty empty 0 -9 0 10 -262144
-1 -1 0 1;
#X obj 263 282 env~;
#X obj 266 307 vsl 15 128 0 100 0 0 empty empty empty 0 -9 0 10 -262144
-1 -1 0 1;
#X obj 278 282 env~;
#X obj 281 307 vsl 15 128 0 100 0 0 empty empty empty 0 -9 0 10 -262144
-1 -1 0 1;
#X obj 293 282 env~;
#X obj 296 307 vsl 15 128 0 100 0 0 empty empty empty 0 -9 0 10 -262144
-1 -1 0 1;
#X obj 308 282 env~;
#X obj 311 307 vsl 15 128 0 100 0 0 empty empty empty 0 -9 0 10 -262144
-1 -1 0 1;
#X obj 322 282 env~;
#X obj 325 307 vsl 15 128 0 100 0 0 empty empty empty 0 -9 0 10 -262144
-1 -1 0 1;
#X obj 336 282 env~;
#X obj 339 307 vsl 15 128 0 100 0 0 empty empty empty 0 -9 0 10 -262144
-1 -1 0 1;
#X obj 350 282 env~;
#X obj 353 307 vsl 15 128 0 100 0 0 empty empty empty 0 -9 0 10 -262144
-1 -1 0 1;
#X obj 365 282 env~;
#X obj 368 307 vsl 15 128 0 100 0 0 empty empty empty 0 -9 0 10 -262144
-1 -1 0 1;
#X obj 31 214 mtx_*~ 24 25 0 ------------------------------------;
#X obj 70 56 readsf~ 25 1.23547e+08 ------------------;
#X msg 76 -3 open monkeys_25k.wav;
#X msg 77 24 start;
#X msg 120 25 stop;
#X text -88 198 noch umrechnen;
#X text -87 213 von thomas';
#X text -85 228 decoder;
#X text 328 66 noch umrechnen;
#X text 328 79 nach SN3D;
#X obj -43 39 mtx R4.mtx;
#X obj -43 19 loadbang;
#X obj 3 60 mtx_*;
#X obj -108 181 mtx_*;
#X connect 0 0 25 24;
#X connect 1 0 0 0;
#X connect 2 0 3 0;
#X connect 4 0 5 0;
#X connect 6 0 7 0;
#X connect 8 0 9 0;
#X connect 10 0 11 0;
#X connect 12 0 13 0;
#X connect 14 0 15 0;
#X connect 16 0 17 0;
#X connect 18 0 19 0;
#X connect 19 0 71 0;
#X connect 21 0 22 0;
#X connect 21 3 22 1;
#X connect 21 4 22 2;
#X connect 21 5 22 3;
#X connect 21 6 22 4;
#X connect 21 7 22 5;
#X connect 21 8 22 6;
#X connect 21 9 22 7;
#X connect 21 10 22 8;
#X connect 21 11 22 9;
#X connect 21 12 22 10;
#X connect 21 13 22 11;
#X connect 21 14 22 12;
#X connect 21 15 22 13;
#X connect 21 16 22 14;
#X connect 21 17 22 15;
#X connect 22 0 58 1;
#X connect 22 1 58 2;
#X connect 22 2 58 3;
#X connect 22 3 58 4;
#X connect 22 4 58 5;
#X connect 22 5 58 6;
#X connect 22 6 58 7;
#X connect 22 7 58 8;
#X connect 22 8 58 9;
#X connect 22 9 58 10;
#X connect 22 10 58 11;
#X connect 22 11 58 12;
#X connect 22 12 58 13;
#X connect 22 13 58 14;
#X connect 22 14 58 15;
#X connect 22 15 58 16;
#X connect 22 16 58 17;
#X connect 22 17 58 18;
#X connect 22 18 58 19;
#X connect 22 19 58 20;
#X connect 22 20 58 21;
#X connect 22 21 58 22;
#X connect 22 22 58 23;
#X connect 22 23 58 24;
#X connect 22 24 58 25;
#X connect 24 0 23 0;
#X connect 24 1 23 1;
#X connect 24 2 23 2;
#X connect 24 3 23 3;
#X connect 24 4 23 4;
#X connect 24 5 23 5;
#X connect 24 6 23 6;
#X connect 24 7 23 7;
#X connect 24 8 23 8;
#X connect 24 9 23 9;
#X connect 24 10 23 10;
#X connect 24 11 23 11;
#X connect 24 12 23 12;
#X connect 24 13 23 13;
#X connect 24 14 23 14;
#X connect 25 0 2 0;
#X connect 25 0 20 0;
#X connect 25 1 4 0;
#X connect 25 1 20 1;
#X connect 25 2 6 0;
#X connect 25 2 20 2;
#X connect 25 3 8 0;
#X connect 25 3 20 3;
#X connect 25 4 10 0;
#X connect 25 4 20 4;
#X connect 25 5 12 0;
#X connect 25 5 20 5;
#X connect 25 6 14 0;
#X connect 25 6 20 6;
#X connect 25 7 16 0;
#X connect 25 7 20 7;
#X connect 25 8 20 8;
#X connect 25 8 26 0;
#X connect 25 9 20 9;
#X connect 25 9 28 0;
#X connect 25 10 20 10;
#X connect 25 10 30 0;
#X connect 25 11 20 11;
#X connect 25 11 32 0;
#X connect 25 12 20 12;
#X connect 25 12 34 0;
#X connect 25 13 20 13;
#X connect 25 13 36 0;
#X connect 25 14 20 14;
#X connect 25 14 38 0;
#X connect 25 15 20 15;
#X connect 25 15 40 0;
#X connect 25 16 20 16;
#X connect 25 16 42 0;
#X connect 25 17 20 17;
#X connect 25 17 44 0;
#X connect 25 18 20 18;
#X connect 25 18 46 0;
#X connect 25 19 20 19;
#X connect 25 19 48 0;
#X connect 25 20 20 20;
#X connect 25 20 50 0;
#X connect 25 21 20 21;
#X connect 25 21 52 0;
#X connect 25 22 20 22;
#X connect 25 22 54 0;
#X connect 25 23 20 23;
#X connect 25 23 56 0;
#X connect 26 0 27 0;
#X connect 28 0 29 0;
#X connect 30 0 31 0;
#X connect 32 0 33 0;
#X connect 34 0 35 0;
#X connect 36 0 37 0;
#X connect 38 0 39 0;
#X connect 40 0 41 0;
#X connect 42 0 43 0;
#X connect 44 0 45 0;
#X connect 46 0 47 0;
#X connect 48 0 49 0;
#X connect 50 0 51 0;
#X connect 52 0 53 0;
#X connect 54 0 55 0;
#X connect 56 0 57 0;
#X connect 58 0 25 0;
#X connect 58 1 25 1;
#X connect 58 2 25 2;
#X connect 58 3 25 3;
#X connect 58 4 25 4;
#X connect 58 5 25 5;
#X connect 58 6 25 6;
#X connect 58 7 25 7;
#X connect 58 8 25 8;
#X connect 58 9 25 9;
#X connect 58 10 25 10;
#X connect 58 11 25 11;
#X connect 58 12 25 12;
#X connect 58 13 25 13;
#X connect 58 14 25 14;
#X connect 58 15 25 15;
#X connect 58 16 25 16;
#X connect 58 17 25 17;
#X connect 58 18 25 18;
#X connect 58 19 25 19;
#X connect 58 20 25 20;
#X connect 58 21 25 21;
#X connect 58 22 25 22;
#X connect 58 23 25 23;
#X connect 59 0 24 1;
#X connect 59 1 24 2;
#X connect 59 2 24 3;
#X connect 59 3 24 4;
#X connect 59 4 24 5;
#X connect 59 5 24 6;
#X connect 59 6 24 7;
#X connect 59 7 24 8;
#X connect 59 8 24 9;
#X connect 59 9 24 10;
#X connect 59 10 24 11;
#X connect 59 11 24 12;
#X connect 59 12 24 13;
#X connect 59 13 24 14;
#X connect 59 14 24 15;
#X connect 59 15 24 16;
#X connect 59 16 24 17;
#X connect 59 17 24 18;
#X connect 59 18 24 19;
#X connect 59 19 24 20;
#X connect 59 20 24 21;
#X connect 59 21 24 22;
#X connect 59 22 24 23;
#X connect 59 23 24 24;
#X connect 59 24 24 25;
#X connect 60 0 59 0;
#X connect 61 0 59 0;
#X connect 62 0 59 0;
#X connect 68 0 23 0;
#X connect 68 0 70 0;
#X connect 69 0 68 0;
#X connect 70 0 24 0;
#X connect 71 0 58 0;
